HIERARCHY
ROOT Hips
{
	OFFSET 0.000000 0.000000 0.000000
	CHANNELS 6 Xposition Yposition Zposition Zrotation Yrotation Xrotation 
	JOINT LHipJoint
	{
		OFFSET 0.000000 0.000000 0.000000
		CHANNELS 3 Zrotation Yrotation Xrotation
		JOINT LeftUpLeg
		{
			OFFSET 1.363060 -1.794630 0.839290
			CHANNELS 3 Zrotation Yrotation Xrotation
			JOINT LeftLeg
			{
				OFFSET 2.448110 -6.726130 0.000000
				CHANNELS 3 Zrotation Yrotation Xrotation
				JOINT LeftFoot
				{
					OFFSET 2.562200 -7.039590 0.000000
					CHANNELS 3 Zrotation Yrotation Xrotation
					JOINT LeftToeBase
					{
						OFFSET 0.157640 -0.433110 2.322550
						CHANNELS 3 Zrotation Yrotation Xrotation
						End Site
						{
							OFFSET 0.000000 0.000000 0.000000
						}
					}
				}
			}
		}
	}
	JOINT RHipJoint
	{
		OFFSET 0.000000 0.000000 0.000000
		CHANNELS 3 Zrotation Yrotation Xrotation
		JOINT RightUpLeg
		{
			OFFSET -1.305520 -1.794630 0.839290
			CHANNELS 3 Zrotation Yrotation Xrotation
			JOINT RightLeg
			{
				OFFSET -2.542530 -6.985550 0.000000
				CHANNELS 3 Zrotation Yrotation Xrotation
				JOINT RightFoot
				{
					OFFSET -2.568260 -7.056230 0.000000
					CHANNELS 3 Zrotation Yrotation Xrotation
					JOINT RightToeBase
					{
						OFFSET -0.164730 -0.452590 2.363150
						CHANNELS 3 Zrotation Yrotation Xrotation
						End Site
						{
							OFFSET 0.000000 0.000000 0.000000
						}
					}
				}
			}
		}
	}
	JOINT LowerBack
	{
		OFFSET 0.000000 0.000000 0.000000
		CHANNELS 3 Zrotation Yrotation Xrotation
		JOINT Spine
		{
			OFFSET 0.028270 2.035590 -0.193380
			CHANNELS 3 Zrotation Yrotation Xrotation
			JOINT Spine1
			{
				OFFSET 0.056720 2.048850 -0.042750
				CHANNELS 3 Zrotation Yrotation Xrotation
				JOINT Neck
				{
					OFFSET 0.000000 0.000000 0.000000
					CHANNELS 3 Zrotation Yrotation Xrotation
					JOINT Neck1
					{
						OFFSET -0.054170 1.746240 0.172020
						CHANNELS 3 Zrotation Yrotation Xrotation
						JOINT Head
						{
							OFFSET 0.104070 1.761360 -0.123970
							CHANNELS 3 Zrotation Yrotation Xrotation
							End Site
							{
								OFFSET 0.000000 0.000000 0.000000
							}
						}
					}
				}
				JOINT LeftShoulder
				{
					OFFSET 0.000000 0.000000 0.000000
					CHANNELS 3 Zrotation Yrotation Xrotation
					JOINT LeftArm
					{
						OFFSET 3.362410 1.200890 -0.311210
						CHANNELS 3 Zrotation Yrotation Xrotation
						JOINT LeftForeArm
						{
							OFFSET 4.983000 -0.000000 -0.000000
							CHANNELS 3 Zrotation Yrotation Xrotation
							JOINT LeftHand
							{
								OFFSET 3.483560 -0.000000 -0.000000
								CHANNELS 3 Zrotation Yrotation Xrotation
								JOINT LeftFingerBase
								{
									OFFSET 0.000000 0.000000 0.000000
									CHANNELS 3 Zrotation Yrotation Xrotation
									JOINT LeftHandIndex1
									{
										OFFSET 0.715260 -0.000000 -0.000000
										CHANNELS 3 Zrotation Yrotation Xrotation
										End Site
										{
											OFFSET 0.000000 0.000000 0.000000
										}
									}
								}
								JOINT LThumb
								{
									OFFSET 0.000000 0.000000 0.000000
									CHANNELS 3 Zrotation Yrotation Xrotation
									End Site
									{
										OFFSET 0.000000 0.000000 0.000000
									}
								}
							}
						}
					}
				}
				JOINT RightShoulder
				{
					OFFSET 0.000000 0.000000 0.000000
					CHANNELS 3 Zrotation Yrotation Xrotation
					JOINT RightArm
					{
						OFFSET -3.136600 1.374050 -0.404650
						CHANNELS 3 Zrotation Yrotation Xrotation
						JOINT RightForeArm
						{
							OFFSET -5.241900 -0.000000 -0.000000
							CHANNELS 3 Zrotation Yrotation Xrotation
							JOINT RightHand
							{
								OFFSET -3.444170 -0.000000 -0.000000
								CHANNELS 3 Zrotation Yrotation Xrotation
								JOINT RightFingerBase
								{
									OFFSET 0.000000 0.000000 0.000000
									CHANNELS 3 Zrotation Yrotation Xrotation
									JOINT RightHandIndex1
									{
										OFFSET -0.622530 -0.000000 -0.000000
										CHANNELS 3 Zrotation Yrotation Xrotation
										End Site
										{
											OFFSET 0.000000 0.000000 0.000000
										}
									}
								}
								JOINT RThumb
								{
									OFFSET 0.000000 0.000000 0.000000
									CHANNELS 3 Zrotation Yrotation Xrotation
									End Site
									{
										OFFSET 0.000000 0.000000 0.000000
									}
								}
							}
						}
					}
				}
			}
		}
	}
}
MOTION
Frames: 6
Frame Time: 0.008333
9.580445 18.313739 1.206349 3.029341 7.995329 8.927514 -5.788937 2.905486 8.078253 -11.138698 -2.285552 6.604328 -1.291856 6.557546 17.938013 -1.329258 20.111900 37.878125 0.081126 1.830426 5.037331 2.136976 4.267708 -6.244120 7.987662 1.632397 -34.266116 2.967751 -10.730452 21.077520 -2.554699 -6.535961 33.041889 -0.026695 1.054301 -2.898216 2.256196 -2.842752 2.271280 1.533752 -3.172605 -4.203735 0.499051 -2.715921 -2.506323 -3.260604 -0.120269 -10.851750 3.892193 -0.090072 9.169760 -0.029877 0.025049 5.293894 3.490999 -10.501182 0.135565 -79.177757 -13.150562 32.748710 39.311224 -40.318321 -21.021335 -0.997460 0.237090 -28.410601 30.161967 -15.992844 -9.745545 -7.125000 0.000000 0.000000 2.037523 10.759238 -1.622252 -3.004208 8.525772 1.130699 90.257449 -23.972702 -64.610042 -2.487573 4.617982 -1.262096 3.375368 -0.694335 60.431864 -19.653936 -31.819783 12.691045 7.125000 0.000000 0.000000 14.181990 -65.516107 -7.092786
9.586330 18.315280 1.341241 2.852790 7.732977 8.753703 -5.742974 2.762616 7.867022 -11.153828 -1.979541 6.003256 -0.693530 7.386196 19.919945 -1.609461 21.460110 38.134968 0.083485 1.857223 5.111348 2.129545 4.260232 -6.121288 8.297901 1.658633 -34.235552 2.891552 -10.921829 21.795851 -2.714186 -5.807877 32.737849 -0.023580 0.954538 -2.623947 2.550816 -2.744341 2.511715 1.529501 -3.029786 -4.183024 0.405706 -2.624052 -2.592574 -3.325032 -0.051102 -10.634528 3.919865 -0.005994 9.032496 0.023132 0.064249 5.136192 3.485591 -10.501808 0.144324 -79.415950 -12.830986 32.806471 39.230026 -40.307257 -20.939511 -1.008349 0.214356 -28.624320 30.087073 -15.792829 -9.604950 -7.125000 0.000000 0.000000 2.026526 11.012759 -1.603489 -3.000242 8.558986 1.152851 90.174692 -23.585855 -64.244119 -2.485557 4.628338 -1.277691 3.381471 -0.732486 60.540375 -19.919577 -31.851655 12.878313 7.125000 0.000000 0.000000 13.835483 -65.611271 -6.947332
9.588620 18.315280 1.467818 2.798326 7.487150 8.609924 -5.680900 2.603311 7.642088 -11.278836 -1.610212 5.410302 -0.082000 8.130123 21.766264 -1.793323 22.654636 38.464418 0.068308 1.674338 4.606747 2.093031 4.265834 -6.020194 8.490795 1.715777 -34.213481 2.815031 -11.106512 22.486571 -2.924500 -4.991686 32.531980 -0.012567 0.637030 -1.750845 2.673030 -2.636865 2.799126 1.513878 -2.878085 -4.156132 0.335522 -2.524248 -2.703412 -3.396516 0.045380 -10.287902 3.985292 0.100753 8.807675 0.099420 0.117614 4.872587 3.473376 -10.510457 0.167613 -79.633819 -12.569057 32.840331 39.163831 -40.295832 -20.866481 -1.013630 0.185008 -28.844937 29.900543 -15.516928 -9.375684 -7.125000 0.000000 0.000000 1.950909 11.381931 -1.529081 -3.006835 8.594834 1.188238 90.166606 -23.108677 -64.008282 -2.496702 4.631292 -1.293132 3.379287 -0.779387 60.722604 -20.194931 -31.842846 13.056856 7.125000 0.000000 0.000000 13.430405 -65.662085 -6.756120
9.590763 18.316307 1.595166 2.762920 7.251661 8.461715 -5.614324 2.445223 7.412094 -11.425366 -1.259773 4.837568 0.542291 8.867772 23.600793 -2.043260 23.968965 38.652137 0.058674 1.556557 4.281828 2.056625 4.268138 -5.913875 8.668962 1.759247 -34.176721 2.738944 -11.282649 23.162414 -3.138678 -4.174034 32.346524 -0.003093 0.325146 -0.893308 2.766566 -2.531727 3.084787 1.499045 -2.730618 -4.130544 0.273998 -2.427241 -2.791908 -3.442289 0.109473 -10.028057 4.030132 0.167920 8.612422 0.150891 0.150869 4.658281 3.463531 -10.518333 0.185729 -79.833866 -12.327149 32.904391 39.070065 -40.268544 -20.771062 -1.023520 0.158993 -29.095018 29.763365 -15.264945 -9.181791 -7.125000 0.000000 0.000000 1.905539 11.708198 -1.479986 -3.010124 8.633068 1.216780 90.154956 -22.631177 -63.679020 -2.501940 4.640438 -1.308790 3.379540 -0.817433 60.797745 -20.436397 -31.845166 13.217805 7.125000 0.000000 0.000000 13.080732 -65.716226 -6.594136
9.592064 18.323177 1.726896 2.835899 7.074968 8.288315 -5.522150 2.294061 7.153330 -11.694298 -1.016778 4.379832 1.239153 9.569717 25.368268 -2.669004 25.964676 38.033757 0.080566 1.809059 4.978850 2.020833 4.251690 -5.777840 8.763370 1.724944 -34.056417 2.665330 -11.410180 23.753645 -3.374831 -3.348071 32.277167 -0.002377 0.045244 -0.124295 2.696997 -2.439887 3.360490 1.488706 -2.607225 -4.112373 0.261730 -2.346134 -2.753331 -3.341838 -0.010645 -10.261787 3.957878 0.009983 8.585337 0.061217 0.069746 4.724362 3.467166 -10.521812 0.174418 -79.932554 -12.199111 33.140221 38.819484 -40.151028 -20.548305 -1.059626 0.151940 -29.512675 29.906879 -15.148998 -9.189089 -7.125000 0.000000 0.000000 2.032193 11.790440 -1.574853 -2.994617 8.684866 1.206384 90.123041 -22.151847 -62.818402 -2.473582 4.684806 -1.325689 3.393660 -0.805118 60.263832 -20.485119 -31.910778 13.278692 7.125000 0.000000 0.000000 13.046169 -65.789290 -6.598389
9.593365 18.330047 1.858626 2.908879 6.898276 8.114915 -5.429977 2.142899 6.894565 -11.963231 -0.773782 3.922096 1.936014 10.271663 27.135742 -3.294747 27.960386 37.415376 0.102459 2.061562 5.675872 1.985041 4.235242 -5.641804 8.857778 1.690642 -33.936114 2.591715 -11.537710 24.344875 -3.610984 -2.522108 32.207810 -0.001660 -0.234657 0.644717 2.627428 -2.348047 3.636194 1.478368 -2.483833 -4.094202 0.249461 -2.265027 -2.714753 -3.241386 -0.130763 -10.495516 3.885623 -0.147954 8.558252 -0.028457 -0.011377 4.790442 3.470802 -10.525291 0.163106 -80.031241 -12.071073 33.376051 38.568903 -40.033512 -20.325547 -1.095732 0.144887 -29.930332 30.050393 -15.033052 -9.196386 -7.125000 0.000000 0.000000 2.158847 11.872682 -1.669721 -2.979110 8.736665 1.195988 90.091126 -21.672517 -61.957784 -2.445223 4.729174 -1.342588 3.407779 -0.792803 59.729919 -20.533842 -31.976390 13.339579 7.125000 0.000000 0.000000 13.011607 -65.862354 -6.602642
